<svg id="assignment_turned_in-24px" xmlns="http://www.w3.org/2000/svg" width="64" height="64" viewBox="0 0 64 64">
  <path id="Path_12" data-name="Path 12" d="M0,0H64V64H0Z" fill="none"/>
  <path id="Path_13" data-name="Path 13" d="M45.667,6.333H34.52a7.968,7.968,0,0,0-15.04,0H8.333A5.349,5.349,0,0,0,3,11.667V49a5.349,5.349,0,0,0,5.333,5.333H45.667A5.349,5.349,0,0,0,51,49V11.667A5.349,5.349,0,0,0,45.667,6.333ZM27,6.333A2.667,2.667,0,1,1,24.333,9,2.675,2.675,0,0,1,27,6.333ZM21.667,43.667,11,33l3.76-3.76,6.907,6.88L39.24,18.547,43,22.333Z" transform="translate(5 1.667)" fill="#fff"/>
</svg>
