<svg id="camera_alt-24px" xmlns="http://www.w3.org/2000/svg" width="32" height="32" viewBox="0 0 32 32">
  <circle id="Ellipse_11" data-name="Ellipse 11" cx="4.267" cy="4.267" r="4.267" transform="translate(11.733 11.733)" fill="#fff"/>
  <path id="Path_7" data-name="Path 7" d="M11.333,2,8.893,4.667H4.667A2.675,2.675,0,0,0,2,7.333v16A2.675,2.675,0,0,0,4.667,26H26a2.675,2.675,0,0,0,2.667-2.667v-16A2.675,2.675,0,0,0,26,4.667H21.773L19.333,2Zm4,20A6.667,6.667,0,1,1,22,15.333,6.669,6.669,0,0,1,15.333,22Z" transform="translate(0.667 0.667)" fill="#fff"/>
  <path id="Path_8" data-name="Path 8" d="M0,0H32V32H0Z" fill="none"/>
</svg>
