<svg id="healing-24px" xmlns="http://www.w3.org/2000/svg" width="48" height="48" viewBox="0 0 48 48">
  <path id="Path_21" data-name="Path 21" d="M0,0H48V48H0Z" fill="none"/>
  <path id="Path_22" data-name="Path 22" d="M33.5,22.042l7.96-7.96a1.992,1.992,0,0,0,0-2.82l-8.68-8.68a1.992,1.992,0,0,0-2.82,0L22,10.543l-7.96-7.96A2.049,2.049,0,0,0,12.623,2a2,2,0,0,0-1.4.58l-8.68,8.68a1.992,1.992,0,0,0,0,2.82l7.96,7.96L2.543,30a1.992,1.992,0,0,0,0,2.82l8.68,8.68a1.992,1.992,0,0,0,2.82,0L22,33.543l7.96,7.96a1.964,1.964,0,0,0,1.42.58,2.049,2.049,0,0,0,1.42-.58l8.68-8.68a1.992,1.992,0,0,0,0-2.82l-7.98-7.96ZM22.042,16a2,2,0,1,1-2,2A2.006,2.006,0,0,1,22.042,16Zm-9.42,3.92-7.26-7.24,7.26-7.26,7.24,7.24ZM18.042,24a2,2,0,1,1,2-2A2.006,2.006,0,0,1,18.042,24Zm4,4a2,2,0,1,1,2-2A2.006,2.006,0,0,1,22.042,28Zm4-8a2,2,0,1,1-2,2A2.006,2.006,0,0,1,26.042,20Zm5.32,18.68-7.26-7.24,7.26-7.26,7.24,7.24Z" transform="translate(1.957 1.998)" fill="#003279"/>
</svg>
