<svg id="people-24px" xmlns="http://www.w3.org/2000/svg" width="48" height="48" viewBox="0 0 48 48">
  <path id="Path_23" data-name="Path 23" d="M0,0H48V48H0Z" fill="none"/>
  <path id="Path_24" data-name="Path 24" d="M31,17a6,6,0,1,0-6-6A5.975,5.975,0,0,0,31,17ZM15,17a6,6,0,1,0-6-6A5.975,5.975,0,0,0,15,17Zm0,4c-4.66,0-14,2.34-14,7v5H29V28C29,23.34,19.66,21,15,21Zm16,0c-.58,0-1.24.04-1.94.1C31.38,22.78,33,25.04,33,28v5H45V28C45,23.34,35.66,21,31,21Z" transform="translate(1 5)" fill="#003279"/>
</svg>
