<svg id="Symbol_12_6" data-name="Symbol 12 – 6" xmlns="http://www.w3.org/2000/svg" width="32.339" height="22.028" viewBox="0 0 32.339 22.028">
  <rect id="Rectangle_393" data-name="Rectangle 393" width="16" height="16" fill="none"/>
  <path id="Path_2" data-name="Path 2" d="M45.038,20.026A12.848,12.848,0,0,0,58,7.062V6.445A10.036,10.036,0,0,0,60.224,4.1a10.25,10.25,0,0,1-2.593.74,4.8,4.8,0,0,0,1.975-2.47,11.325,11.325,0,0,1-2.839,1.111A4.41,4.41,0,0,0,53.433,2a4.639,4.639,0,0,0-4.569,4.568,2.407,2.407,0,0,0,.124.988A12.765,12.765,0,0,1,39.6,2.74a4.722,4.722,0,0,0-.617,2.346,4.906,4.906,0,0,0,1.975,3.828,4.167,4.167,0,0,1-2.1-.617h0a4.513,4.513,0,0,0,3.7,4.445,3.806,3.806,0,0,1-1.235.124,2.1,2.1,0,0,1-.864-.124,4.677,4.677,0,0,0,4.321,3.21,9.322,9.322,0,0,1-5.68,1.975A3.418,3.418,0,0,1,38,17.8a11.654,11.654,0,0,0,7.038,2.222" transform="translate(-27.885 2)" fill="#fff" fill-rule="evenodd"/>
</svg>
